<?xml version="1.0" encoding="UTF-8"?>
<svg width="15px" height="20px" viewBox="0 0 15 20" version="1.1" xmlns="http://www.w3.org/2000/svg" xmlns:xlink="http://www.w3.org/1999/xlink">
    <!-- Generator: sketchtool 41.2 (35397) - http://www.bohemiancoding.com/sketch -->
    <title>D0011ED9-B0E2-460D-B051-E91F1A186CC5</title>
    <desc>Created with sketchtool.</desc>
    <defs></defs>
    <g id="Symbols" stroke="none" stroke-width="1" fill="none" fill-rule="evenodd">
        <g id="v2-/-header" transform="translate(-21.000000, -18.000000)" fill="#FFFFFF">
            <g id="icon_account" transform="translate(21.000000, 18.000000)">
                <path d="M7.64467241,6.62983851 C7.7270431,6.62983851 7.80915517,6.63344099 7.88906897,6.64064596 C8.36777586,6.68337888 8.83083621,6.86437267 9.30462931,7.19406211 C9.87411207,7.5903354 10.3762241,8.11816149 10.884931,8.85530435 C10.9312241,8.92263354 10.9760948,8.9908323 11.0204483,9.05952795 L11.4597155,8.87219876 C12.0694138,8.61195031 12.6792414,8.35157764 13.2894569,8.0924472 C13.2714828,7.99157764 13.2542845,7.89095652 13.2369569,7.79021118 C13.1900172,7.5155528 13.1413966,7.23157764 13.0777759,6.95940373 C12.7692414,5.6418882 12.2628621,4.52524224 11.5294138,3.54536646 C10.8235086,2.60226087 10.0013534,1.92064596 9.01575,1.46163975 C8.1807931,1.0729441 7.29087931,0.875801242 6.37044828,0.875801242 C5.83885345,0.875801242 5.2832069,0.941391304 4.71902586,1.07070807 C3.68480172,1.30760248 2.67010345,1.74834783 1.62230172,2.41654658 L1.677,2.49754037 C2.71665517,4.03729193 3.75631034,5.57704348 4.79855172,7.1150559 C4.97764655,7.12176398 5.15286207,7.12524224 5.32031897,7.12524224 C5.36583621,7.12524224 5.41135345,7.12499379 5.45661207,7.12449689 C5.50316379,7.124 5.56057759,7.11344099 5.63208621,7.09207453 C5.76333621,7.05269565 5.89419828,7.01120497 6.02506034,6.96959006 C6.24967241,6.89828571 6.4820431,6.82449689 6.71687069,6.76226087 C7.05307759,6.67319255 7.35643966,6.62983851 7.64467241,6.62983851 L7.64467241,6.62983851 Z M11.3873017,9.73207453 L12.7080776,9.16213665 C12.399931,9.29356522 11.3851034,9.72735404 11.3851034,9.72735404 L11.3873017,9.73207453 Z M11.2704052,12.0754286 L11.2741552,12.1068571 L11.2993707,12.3695901 C11.3858793,12.3292174 11.4721293,12.2885963 11.5585086,12.2479752 C11.8671724,12.1026335 12.186569,11.9524472 12.5093276,11.8169193 C12.8296293,11.6826335 13.0477759,11.4704596 13.1798017,11.1602733 C13.1798017,11.1602733 11.2777759,12.0360497 11.2652328,12.041764 C11.2669138,12.0529441 11.2687241,12.0643727 11.2704052,12.0754286 L11.2704052,12.0754286 Z M11.2850172,13.2207702 C11.2713103,13.2898385 11.2590259,13.3591553 11.2466121,13.428472 C11.2373017,13.480646 11.2281207,13.5328199 11.2182931,13.5848696 C11.4188534,13.4899627 11.6169569,13.3964224 11.8159655,13.3044969 C12.0831207,13.1811429 12.2666121,12.9944348 12.3884224,12.7108323 C12.0201466,12.8799006 11.6521293,13.0493416 11.2850172,13.2207702 L11.2850172,13.2207702 Z M9.60113793,10.9789068 C9.45669828,10.9789068 9.30682759,11.0469814 9.14337931,11.1871056 C8.98587931,11.3218882 8.85618103,11.4970435 8.74691379,11.7227578 C8.45531897,12.3253665 8.36674138,12.9777888 8.48389655,13.6616398 C8.55372414,14.070087 8.68743103,14.371205 8.90441379,14.6094658 C8.99984483,14.7141863 9.15592241,14.8390311 9.357,14.8390311 C9.49096552,14.8390311 9.63346552,14.782882 9.76911207,14.6766708 C9.94290517,14.540646 10.0812672,14.3671056 10.1919569,14.1464845 C10.5441983,13.4447453 10.6234655,12.6982857 10.4275603,11.9277267 C10.3917414,11.7861118 10.401181,11.5936894 10.6497155,11.4803975 C11.080319,11.284 11.5104052,11.0861118 11.9404914,10.8880994 C12.3959224,10.6785342 12.8516121,10.4688447 13.307819,10.2607702 C13.5629483,10.1446211 13.7448879,9.96971429 13.8645,9.72623602 C13.9092414,9.63480745 13.9455776,9.54002484 13.97325,9.44077019 L13.0379483,9.84424845 C12.1083362,10.2456149 11.1787241,10.6468571 10.2484655,11.0467329 C10.1988103,11.0680994 10.1227759,11.0933168 10.0414397,11.0933168 C9.98389655,11.0933168 9.93087931,11.0808944 9.88368103,11.0564224 C9.78346552,11.0042484 9.69113793,10.9789068 9.60113793,10.9789068 L9.60113793,10.9789068 Z M1.04286207,17.6728199 C1.18368103,17.9302112 1.32398276,18.1879752 1.46234483,18.4466087 C1.52764655,18.5683478 1.62825,18.6421366 1.79855172,18.6929441 C2.48143966,18.896795 3.20001724,19.0597764 3.93411207,19.1777888 C4.03678448,19.1943106 4.11359483,19.201764 4.18381034,19.201764 C4.27652586,19.201764 4.35540517,19.1885963 4.43182759,19.1603975 C5.86665517,18.631205 7.32346552,17.9823851 8.76191379,17.2318261 C8.97747414,17.1194037 9.13109483,16.9744348 9.23169828,16.7885963 C9.33462931,16.5984099 9.43161207,16.3976646 9.52536207,16.2037516 C9.57372414,16.1033789 9.62221552,16.0031304 9.67187069,15.9032547 L9.67768966,15.8915776 C9.70096552,15.8437516 9.73626724,15.7715776 9.80518966,15.7130683 C9.94238793,15.5964224 10.0693707,15.4676025 10.1866552,15.3254907 C10.1703621,15.3366708 10.1539397,15.3477267 10.1372586,15.3585342 C9.89428448,15.5159255 9.62518966,15.5991553 9.35919828,15.5991553 C9.0669569,15.5991553 8.78131034,15.5001491 8.53316379,15.3126957 C8.25424138,15.1021366 8.04527586,14.817913 7.89437069,14.4435031 C7.6070431,13.7305839 7.56488793,12.9467329 7.76881034,12.1135652 C7.91350862,11.5227578 8.16100862,11.0625093 8.52566379,10.706236 C8.85618103,10.3833789 9.21437069,10.2197764 9.59001724,10.2197764 C9.73781897,10.2197764 9.88975862,10.2452422 10.0424741,10.295677 C10.2460086,10.1999006 10.4494138,10.1030062 10.6555345,10.0047453 C10.3466121,9.3908323 9.93993103,8.82437267 9.44557759,8.3197764 C9.16626724,8.03480745 8.85191379,7.80052174 8.51131034,7.62362733 C8.21105172,7.46772671 7.92191379,7.39195031 7.62682759,7.39195031 C7.54355172,7.39195031 7.4582069,7.39816149 7.37325,7.41045963 C7.11837931,7.44735404 6.85652586,7.504 6.57682759,7.58337888 C6.58975862,7.58362733 6.60256034,7.58387578 6.61549138,7.58424845 C6.82148276,7.58847205 6.99113793,7.64636025 7.1495431,7.76623602 C7.74256034,8.21542857 8.22605172,8.81207453 8.62743103,9.59045963 C8.64631034,9.62722981 8.66350862,9.66449689 8.68148276,9.70350311 L8.80419828,9.96387578 C8.80419828,9.96387578 8.51661207,10.1213913 8.49359483,10.133441 C8.40411207,10.1799006 8.31527586,10.2271056 8.22631034,10.2744348 C8.0244569,10.3816398 7.81549138,10.4924472 7.60277586,10.5936894 C7.18768966,10.7910807 6.85872414,11.1001491 6.62518966,11.5124472 C6.02286207,12.5762981 5.89781897,13.7105839 6.25381034,14.8837516 C6.41325,15.4089689 6.68493103,15.7951801 7.08475862,16.0643727 C7.12536207,16.0913292 7.15044828,16.1227578 7.16376724,16.1397764 L7.33264655,16.3293416 L7.12393966,16.5044969 C7.10247414,16.5230062 7.0832069,16.5384099 7.06251724,16.5515776 C6.94083621,16.6293416 6.81902586,16.7080994 6.69734483,16.7871056 C6.41661207,16.9690932 6.12631034,17.1574161 5.83174138,17.3331925 C5.19411207,17.7136894 4.64040517,17.9559255 4.08902586,18.0955528 C3.96967241,18.1257391 3.84113793,18.1535652 3.70872414,18.1536894 C3.65932759,18.1536894 3.61148276,18.1495901 3.56674138,18.1416398 C3.02053448,18.0449938 2.46734483,17.940646 1.93238793,17.8396522 C1.63587931,17.7837516 1.3395,17.7277267 1.04286207,17.6728199 L1.04286207,17.6728199 Z M4.13881034,19.9461118 C3.99915517,19.9461118 3.85717241,19.9326957 3.70458621,19.9053665 C2.86368103,19.7538137 2.17794828,19.5943106 1.54587931,19.4036273 C1.19001724,19.2959255 0.942517241,19.1069814 0.789284483,18.8257391 C0.789284483,18.8257391 0.243206897,17.8254907 0.117646552,17.594559 C0.0189827586,17.4130683 0.00631034483,17.2172919 0.0793706897,17.0125714 C0.156051724,16.7976646 0.221612069,16.5861118 0.299198276,16.3318261 C0.302431034,16.3215155 0.302818966,16.3082236 0.301655172,16.3030062 C0.0898448276,15.2800248 -0.00868965517,14.3468571 0.000620689655,13.4499627 C0.0130344828,12.2403975 0.212431034,11.2136894 0.609931034,10.3114534 C1.01997414,9.38064596 1.6419569,8.62486957 2.45893966,8.06549068 C2.47109483,8.0571677 2.47536207,8.05269565 2.47536207,8.05269565 C2.80859483,7.57878261 3.23169828,7.19915528 3.73342241,6.92412422 L0.584715517,2.26089441 L0.719068966,2.11915528 C0.730189655,2.10623602 0.752560345,2.08014907 0.787603448,2.05629814 C1.92062069,1.27667081 3.02648276,0.74536646 4.16712931,0.432571429 C4.91350862,0.227975155 5.65031897,0.124124224 6.357,0.124124224 C7.05527586,0.124124224 7.74682759,0.22536646 8.41225862,0.424869565 C9.70833621,0.813565217 10.8398017,1.55393789 11.7752328,2.62536646 C12.6368276,3.61207453 13.2610086,4.77865839 13.6830776,6.19170186 C13.8709655,6.82114286 14.009069,7.49679503 14.1050172,8.25741615 C14.1255776,8.42114286 14.098681,8.54623602 13.9691121,8.63021118 L14.8823017,8.2482236 L14.8823017,8.63219876 C14.8823017,8.67418634 14.8546293,8.71468323 14.8550172,8.75406211 C14.8560517,8.84387578 14.8427328,8.92859627 14.8389828,9.01331677 C14.8168707,9.50636025 14.6863966,9.91393789 14.4545431,10.2591553 C14.3675172,10.3887205 14.2523017,10.5160497 14.1193707,10.637913 C14.0973879,10.6577888 14.0941552,10.6623851 14.0919569,10.6889689 C14.0662241,11.0015155 13.9832069,11.2991553 13.8469138,11.5731925 C13.71825,11.8320745 13.5379914,12.053441 13.3116983,12.2314534 C13.2531207,12.7124472 13.1152759,13.0857391 12.879931,13.4037516 C12.7039397,13.6418882 12.4782931,13.8274783 12.2097155,13.9553043 L12.0370862,14.0364224 C11.9063534,14.0975404 11.7713534,14.160646 11.642819,14.2263602 C11.4321724,14.8493416 11.1567414,15.3605217 10.8010086,15.7887205 C10.7362241,15.8667329 10.667431,15.9370435 10.6008362,16.005118 C10.5524741,16.054559 10.5039828,16.1038758 10.4584655,16.1555528 C10.4112672,16.2092174 10.3697586,16.2678509 10.3387241,16.3253665 C10.2760086,16.4421366 10.2151034,16.5599006 10.1543276,16.6777888 C10.0534655,16.8733168 9.94911207,17.0755528 9.83544828,17.2718261 C9.69618103,17.512323 9.48618103,17.7046211 9.19342241,17.8597764 C7.85506034,18.5690932 6.43652586,19.2080994 4.85674138,19.8135652 C4.62437069,19.9027578 4.38941379,19.9461118 4.13881034,19.9461118 L4.13881034,19.9461118 Z" id="Fill-1"></path>
                <path d="M8.11571121,9.75090683 C8.08131466,9.77078261 8.04885776,9.7912795 8.01471983,9.80904348 C7.75015086,9.94668323 7.48454741,10.0825839 7.22049569,10.2212174 C6.74618534,10.4702857 6.40984914,10.8484224 6.14903017,11.2933913 C5.780625,11.9219627 5.59596983,12.602087 5.54709052,13.3189814 C5.49976293,14.013764 5.59053879,14.6886708 5.86584052,15.336 C6.01002155,15.6746335 6.20734914,15.9809689 6.48252155,16.2376149 C6.49648707,16.2506584 6.50851293,16.2656894 6.52467672,16.283205 C6.51614224,16.2945093 6.51096983,16.3070559 6.50153017,16.3133913 C5.8494181,16.7438261 5.18864224,17.1598509 4.45118534,17.4480497 C4.40528017,17.4660621 4.35950431,17.4844472 4.3130819,17.5010932 C3.82778017,17.6751304 3.79855603,17.673764 3.1756681,17.5546335 C2.50467672,17.4263106 1.83278017,17.3024596 1.16049569,17.1802236 C1.08549569,17.166559 1.04954741,17.1388571 1.02911638,17.0660621 C0.771400862,16.1528944 0.600969828,15.2256894 0.541616379,14.2807205 C0.470883621,13.1527702 0.540193966,12.0383602 0.909633621,10.9558758 C1.17019397,10.192646 1.56549569,9.50159006 2.17765086,8.9470559 C2.58161638,8.58109317 3.01648707,8.24544099 3.54174569,8.04270807 C3.58648707,8.02544099 3.63756466,8.01314286 3.68528017,8.01438509 C4.66390086,8.03947826 5.64252155,8.06556522 6.62101293,8.09637267 C6.68786638,8.09848447 6.76480603,8.12506832 6.81782328,8.16419876 C7.37760776,8.57674534 7.78028017,9.1112795 8.10032328,9.70842236 C8.10614224,9.71922981 8.10885776,9.73165217 8.11571121,9.75090683" id="Fill-4"></path>
            </g>
        </g>
    </g>
</svg>